<svg width="30" height="35" viewBox="0 0 30 35" fill="none" xmlns="http://www.w3.org/2000/svg">
<path d="M15.0007 0C11.2773 0 8.22102 3.00089 8.22102 6.6568V7.98817H1.52542L1.44136 9.23698L0.085424 33.2015L0 34.6154H30L29.9159 33.2001L28.56 9.23565L28.4746 7.98817H21.7803V6.6568C21.7803 3.00089 18.7241 0 15.0007 0ZM15.0007 2.66272C16.0795 2.66272 17.1142 3.08353 17.877 3.83256C18.6399 4.5816 19.0685 5.59751 19.0685 6.6568V7.98817H10.9329V6.6568C10.9329 5.59751 11.3615 4.5816 12.1243 3.83256C12.8872 3.08353 13.9218 2.66272 15.0007 2.66272ZM4.0678 10.6509H8.22102V14.645H10.9329V10.6509H19.0685V14.645H21.7803V10.6509H25.9336L27.12 31.9527H2.88271L4.0678 10.6509Z" fill="#333333"/>
</svg>
